<mxfile host="app.diagrams.net" modified="2021-01-06T13:34:08.969Z" agent="5.0 (Windows NT 6.3; Win64; x64) AppleWebKit/537.36 (KHTML, like Gecko) Chrome/87.0.4280.88 Safari/537.36" etag="XGtABQHw409n92A0Q-iu" version="14.1.8" type="github">
  <diagram id="euuS7l0F3n9GTkHMdsup" name="Page-1">
    <mxGraphModel dx="1240" dy="703" grid="1" gridSize="10" guides="1" tooltips="1" connect="1" arrows="1" fold="1" page="1" pageScale="1" pageWidth="827" pageHeight="1169" math="0" shadow="0">
      <root>
        <mxCell id="0" />
        <mxCell id="1" parent="0" />
        <mxCell id="9XJ_nklo4HL-OzojhpFP-1" value="&lt;b&gt;&lt;font style=&quot;font-size: 31px&quot;&gt;A&lt;/font&gt;&lt;/b&gt;" style="ellipse;whiteSpace=wrap;html=1;aspect=fixed;" vertex="1" parent="1">
          <mxGeometry x="334" y="200" width="50" height="50" as="geometry" />
        </mxCell>
        <mxCell id="9XJ_nklo4HL-OzojhpFP-2" value="&lt;b&gt;&lt;font style=&quot;font-size: 28px&quot;&gt;B&lt;/font&gt;&lt;/b&gt;" style="ellipse;whiteSpace=wrap;html=1;aspect=fixed;" vertex="1" parent="1">
          <mxGeometry x="440" y="330" width="50" height="50" as="geometry" />
        </mxCell>
        <mxCell id="9XJ_nklo4HL-OzojhpFP-3" value="&lt;b&gt;&lt;font style=&quot;font-size: 28px&quot;&gt;F&lt;/font&gt;&lt;/b&gt;" style="ellipse;whiteSpace=wrap;html=1;aspect=fixed;" vertex="1" parent="1">
          <mxGeometry x="660" y="320" width="50" height="50" as="geometry" />
        </mxCell>
        <mxCell id="9XJ_nklo4HL-OzojhpFP-4" value="&lt;b&gt;&lt;font style=&quot;font-size: 28px&quot;&gt;I&lt;/font&gt;&lt;/b&gt;" style="ellipse;whiteSpace=wrap;html=1;aspect=fixed;" vertex="1" parent="1">
          <mxGeometry x="690" y="530" width="50" height="50" as="geometry" />
        </mxCell>
        <mxCell id="9XJ_nklo4HL-OzojhpFP-5" value="&lt;b&gt;&lt;font style=&quot;font-size: 28px&quot;&gt;H&lt;/font&gt;&lt;/b&gt;" style="ellipse;whiteSpace=wrap;html=1;aspect=fixed;" vertex="1" parent="1">
          <mxGeometry x="384" y="680" width="50" height="50" as="geometry" />
        </mxCell>
        <mxCell id="9XJ_nklo4HL-OzojhpFP-6" value="&lt;b&gt;&lt;font style=&quot;font-size: 28px&quot;&gt;G&lt;/font&gt;&lt;/b&gt;" style="ellipse;whiteSpace=wrap;html=1;aspect=fixed;" vertex="1" parent="1">
          <mxGeometry x="454" y="540" width="50" height="50" as="geometry" />
        </mxCell>
        <mxCell id="9XJ_nklo4HL-OzojhpFP-7" value="&lt;b&gt;&lt;font style=&quot;font-size: 28px&quot;&gt;C&lt;/font&gt;&lt;/b&gt;" style="ellipse;whiteSpace=wrap;html=1;aspect=fixed;" vertex="1" parent="1">
          <mxGeometry x="210" y="480" width="50" height="50" as="geometry" />
        </mxCell>
        <mxCell id="9XJ_nklo4HL-OzojhpFP-8" value="&lt;b&gt;&lt;font style=&quot;font-size: 28px&quot;&gt;D&lt;/font&gt;&lt;/b&gt;" style="ellipse;whiteSpace=wrap;html=1;aspect=fixed;" vertex="1" parent="1">
          <mxGeometry x="50" y="535" width="50" height="50" as="geometry" />
        </mxCell>
        <mxCell id="9XJ_nklo4HL-OzojhpFP-9" value="&lt;b&gt;&lt;font style=&quot;font-size: 29px&quot;&gt;E&lt;/font&gt;&lt;/b&gt;" style="ellipse;whiteSpace=wrap;html=1;aspect=fixed;" vertex="1" parent="1">
          <mxGeometry x="80" y="270" width="50" height="50" as="geometry" />
        </mxCell>
        <mxCell id="9XJ_nklo4HL-OzojhpFP-10" value="" style="endArrow=none;html=1;entryX=1;entryY=1;entryDx=0;entryDy=0;exitX=0;exitY=0;exitDx=0;exitDy=0;" edge="1" parent="1" source="9XJ_nklo4HL-OzojhpFP-2" target="9XJ_nklo4HL-OzojhpFP-1">
          <mxGeometry width="50" height="50" relative="1" as="geometry">
            <mxPoint x="380" y="430" as="sourcePoint" />
            <mxPoint x="430" y="380" as="targetPoint" />
          </mxGeometry>
        </mxCell>
        <mxCell id="9XJ_nklo4HL-OzojhpFP-11" value="" style="endArrow=none;html=1;entryX=0;entryY=1;entryDx=0;entryDy=0;exitX=0.5;exitY=0;exitDx=0;exitDy=0;" edge="1" parent="1" source="9XJ_nklo4HL-OzojhpFP-7" target="9XJ_nklo4HL-OzojhpFP-1">
          <mxGeometry width="50" height="50" relative="1" as="geometry">
            <mxPoint x="457.3223304703363" y="347.3223304703363" as="sourcePoint" />
            <mxPoint x="386.6776695296637" y="252.67766952966372" as="targetPoint" />
          </mxGeometry>
        </mxCell>
        <mxCell id="9XJ_nklo4HL-OzojhpFP-12" value="" style="endArrow=none;html=1;entryX=0;entryY=0.5;entryDx=0;entryDy=0;exitX=0.5;exitY=0;exitDx=0;exitDy=0;" edge="1" parent="1" source="9XJ_nklo4HL-OzojhpFP-8" target="9XJ_nklo4HL-OzojhpFP-1">
          <mxGeometry width="50" height="50" relative="1" as="geometry">
            <mxPoint x="225" y="470" as="sourcePoint" />
            <mxPoint x="351.3223304703363" y="252.67766952966372" as="targetPoint" />
          </mxGeometry>
        </mxCell>
        <mxCell id="9XJ_nklo4HL-OzojhpFP-13" value="" style="endArrow=none;html=1;entryX=0.5;entryY=1;entryDx=0;entryDy=0;exitX=0;exitY=0;exitDx=0;exitDy=0;" edge="1" parent="1" source="9XJ_nklo4HL-OzojhpFP-8" target="9XJ_nklo4HL-OzojhpFP-9">
          <mxGeometry width="50" height="50" relative="1" as="geometry">
            <mxPoint x="85" y="545" as="sourcePoint" />
            <mxPoint x="344" y="234.9999999999999" as="targetPoint" />
          </mxGeometry>
        </mxCell>
        <mxCell id="9XJ_nklo4HL-OzojhpFP-14" value="" style="endArrow=none;html=1;entryX=1;entryY=1;entryDx=0;entryDy=0;exitX=0.286;exitY=-0.031;exitDx=0;exitDy=0;exitPerimeter=0;" edge="1" parent="1" source="9XJ_nklo4HL-OzojhpFP-7" target="9XJ_nklo4HL-OzojhpFP-9">
          <mxGeometry width="50" height="50" relative="1" as="geometry">
            <mxPoint x="67.32233047033606" y="552.322330470336" as="sourcePoint" />
            <mxPoint x="115" y="329.9999999999999" as="targetPoint" />
          </mxGeometry>
        </mxCell>
        <mxCell id="9XJ_nklo4HL-OzojhpFP-15" value="" style="endArrow=none;html=1;entryX=0;entryY=0.5;entryDx=0;entryDy=0;exitX=1;exitY=1;exitDx=0;exitDy=0;" edge="1" parent="1" source="9XJ_nklo4HL-OzojhpFP-7" target="9XJ_nklo4HL-OzojhpFP-6">
          <mxGeometry width="50" height="50" relative="1" as="geometry">
            <mxPoint x="225" y="470" as="sourcePoint" />
            <mxPoint x="351.3223304703363" y="252.67766952966372" as="targetPoint" />
          </mxGeometry>
        </mxCell>
        <mxCell id="9XJ_nklo4HL-OzojhpFP-16" value="" style="endArrow=none;html=1;entryX=0;entryY=0.5;entryDx=0;entryDy=0;" edge="1" parent="1" target="9XJ_nklo4HL-OzojhpFP-3">
          <mxGeometry width="50" height="50" relative="1" as="geometry">
            <mxPoint x="490" y="350" as="sourcePoint" />
            <mxPoint x="386.6776695296637" y="252.67766952966372" as="targetPoint" />
          </mxGeometry>
        </mxCell>
        <mxCell id="9XJ_nklo4HL-OzojhpFP-17" value="" style="endArrow=none;html=1;entryX=0.5;entryY=0;entryDx=0;entryDy=0;exitX=0.343;exitY=0.969;exitDx=0;exitDy=0;exitPerimeter=0;" edge="1" parent="1" source="9XJ_nklo4HL-OzojhpFP-2" target="9XJ_nklo4HL-OzojhpFP-6">
          <mxGeometry width="50" height="50" relative="1" as="geometry">
            <mxPoint x="242.6776695296635" y="512.6776695296635" as="sourcePoint" />
            <mxPoint x="374" y="555" as="targetPoint" />
          </mxGeometry>
        </mxCell>
        <mxCell id="9XJ_nklo4HL-OzojhpFP-18" value="" style="endArrow=none;html=1;entryX=0.5;entryY=0;entryDx=0;entryDy=0;exitX=0.5;exitY=1;exitDx=0;exitDy=0;" edge="1" parent="1" source="9XJ_nklo4HL-OzojhpFP-3" target="9XJ_nklo4HL-OzojhpFP-4">
          <mxGeometry width="50" height="50" relative="1" as="geometry">
            <mxPoint x="467.1500000000003" y="388.4499999999998" as="sourcePoint" />
            <mxPoint x="399" y="530" as="targetPoint" />
          </mxGeometry>
        </mxCell>
        <mxCell id="9XJ_nklo4HL-OzojhpFP-19" value="" style="endArrow=none;html=1;entryX=1;entryY=0;entryDx=0;entryDy=0;exitX=0;exitY=1;exitDx=0;exitDy=0;" edge="1" parent="1" source="9XJ_nklo4HL-OzojhpFP-4" target="9XJ_nklo4HL-OzojhpFP-5">
          <mxGeometry width="50" height="50" relative="1" as="geometry">
            <mxPoint x="695.0000000000002" y="380" as="sourcePoint" />
            <mxPoint x="725.0000000000002" y="540" as="targetPoint" />
          </mxGeometry>
        </mxCell>
        <mxCell id="9XJ_nklo4HL-OzojhpFP-20" value="" style="endArrow=none;html=1;entryX=0;entryY=0;entryDx=0;entryDy=0;exitX=1;exitY=1;exitDx=0;exitDy=0;" edge="1" parent="1" source="9XJ_nklo4HL-OzojhpFP-8" target="9XJ_nklo4HL-OzojhpFP-5">
          <mxGeometry width="50" height="50" relative="1" as="geometry">
            <mxPoint x="707.3223304703363" y="582.6776695296637" as="sourcePoint" />
            <mxPoint x="436.6776695296637" y="697.3223304703358" as="targetPoint" />
          </mxGeometry>
        </mxCell>
        <mxCell id="9XJ_nklo4HL-OzojhpFP-21" value="&lt;b&gt;&lt;font style=&quot;font-size: 23px&quot; color=&quot;#0000ff&quot;&gt;Vehicle 1&lt;/font&gt;&lt;/b&gt;" style="text;html=1;align=center;verticalAlign=middle;whiteSpace=wrap;rounded=0;" vertex="1" parent="1">
          <mxGeometry x="298.5" y="140" width="121" height="70" as="geometry" />
        </mxCell>
        <mxCell id="9XJ_nklo4HL-OzojhpFP-22" value="&lt;b&gt;&lt;font style=&quot;font-size: 23px&quot; color=&quot;#0000ff&quot;&gt;Vehicle 2&lt;/font&gt;&lt;/b&gt;" style="text;html=1;strokeColor=none;fillColor=none;align=center;verticalAlign=middle;whiteSpace=wrap;rounded=0;" vertex="1" parent="1">
          <mxGeometry x="489" y="490" width="121" height="70" as="geometry" />
        </mxCell>
        <mxCell id="9XJ_nklo4HL-OzojhpFP-23" value="&lt;b&gt;&lt;font style=&quot;font-size: 23px&quot; color=&quot;#0000ff&quot;&gt;Dustbin&lt;/font&gt;&lt;/b&gt;" style="text;html=1;strokeColor=none;fillColor=none;align=center;verticalAlign=middle;whiteSpace=wrap;rounded=0;" vertex="1" parent="1">
          <mxGeometry x="630" y="260" width="121" height="70" as="geometry" />
        </mxCell>
        <mxCell id="9XJ_nklo4HL-OzojhpFP-24" value="&lt;b&gt;&lt;font style=&quot;font-size: 23px&quot; color=&quot;#0000ff&quot;&gt;Dustbin&lt;/font&gt;&lt;/b&gt;" style="text;html=1;strokeColor=none;fillColor=none;align=center;verticalAlign=middle;whiteSpace=wrap;rounded=0;" vertex="1" parent="1">
          <mxGeometry x="50" y="220" width="121" height="70" as="geometry" />
        </mxCell>
        <mxCell id="9XJ_nklo4HL-OzojhpFP-25" value="&lt;b&gt;&lt;font style=&quot;font-size: 23px&quot; color=&quot;#0000ff&quot;&gt;Dustbin&lt;/font&gt;&lt;/b&gt;" style="text;html=1;strokeColor=none;fillColor=none;align=center;verticalAlign=middle;whiteSpace=wrap;rounded=0;" vertex="1" parent="1">
          <mxGeometry x="353" y="710" width="121" height="70" as="geometry" />
        </mxCell>
        <mxCell id="9XJ_nklo4HL-OzojhpFP-26" value="&lt;b&gt;&lt;font style=&quot;font-size: 24px&quot; color=&quot;#ff0000&quot;&gt;2&lt;/font&gt;&lt;/b&gt;" style="text;html=1;strokeColor=none;fillColor=none;align=center;verticalAlign=middle;whiteSpace=wrap;rounded=0;" vertex="1" parent="1">
          <mxGeometry x="414" y="230" width="40" height="20" as="geometry" />
        </mxCell>
        <mxCell id="9XJ_nklo4HL-OzojhpFP-27" value="&lt;b&gt;&lt;font style=&quot;font-size: 24px&quot; color=&quot;#ff0000&quot;&gt;7&lt;/font&gt;&lt;/b&gt;" style="text;html=1;strokeColor=none;fillColor=none;align=center;verticalAlign=middle;whiteSpace=wrap;rounded=0;" vertex="1" parent="1">
          <mxGeometry x="550" y="320" width="40" height="20" as="geometry" />
        </mxCell>
        <mxCell id="9XJ_nklo4HL-OzojhpFP-28" value="&lt;b&gt;&lt;font style=&quot;font-size: 24px&quot; color=&quot;#ff0000&quot;&gt;4&lt;/font&gt;&lt;/b&gt;" style="text;html=1;strokeColor=none;fillColor=none;align=center;verticalAlign=middle;whiteSpace=wrap;rounded=0;" vertex="1" parent="1">
          <mxGeometry x="720" y="420" width="40" height="20" as="geometry" />
        </mxCell>
        <mxCell id="9XJ_nklo4HL-OzojhpFP-29" value="&lt;font color=&quot;#ff0000&quot;&gt;&lt;span style=&quot;font-size: 24px&quot;&gt;&lt;b&gt;8&lt;/b&gt;&lt;/span&gt;&lt;/font&gt;" style="text;html=1;strokeColor=none;fillColor=none;align=center;verticalAlign=middle;whiteSpace=wrap;rounded=0;" vertex="1" parent="1">
          <mxGeometry x="570" y="650" width="40" height="20" as="geometry" />
        </mxCell>
        <mxCell id="9XJ_nklo4HL-OzojhpFP-30" value="&lt;font color=&quot;#ff0000&quot;&gt;&lt;span style=&quot;font-size: 24px&quot;&gt;&lt;b&gt;9&lt;/b&gt;&lt;/span&gt;&lt;/font&gt;" style="text;html=1;strokeColor=none;fillColor=none;align=center;verticalAlign=middle;whiteSpace=wrap;rounded=0;" vertex="1" parent="1">
          <mxGeometry x="190" y="640" width="40" height="20" as="geometry" />
        </mxCell>
        <mxCell id="9XJ_nklo4HL-OzojhpFP-31" value="&lt;font color=&quot;#ff0000&quot;&gt;&lt;span style=&quot;font-size: 24px&quot;&gt;&lt;b&gt;7&lt;/b&gt;&lt;/span&gt;&lt;/font&gt;" style="text;html=1;strokeColor=none;fillColor=none;align=center;verticalAlign=middle;whiteSpace=wrap;rounded=0;" vertex="1" parent="1">
          <mxGeometry x="40" y="420" width="40" height="20" as="geometry" />
        </mxCell>
        <mxCell id="9XJ_nklo4HL-OzojhpFP-32" value="&lt;font color=&quot;#ff0000&quot;&gt;&lt;span style=&quot;font-size: 24px&quot;&gt;&lt;b&gt;6&lt;/b&gt;&lt;/span&gt;&lt;/font&gt;" style="text;html=1;strokeColor=none;fillColor=none;align=center;verticalAlign=middle;whiteSpace=wrap;rounded=0;" vertex="1" parent="1">
          <mxGeometry x="210" y="300" width="40" height="20" as="geometry" />
        </mxCell>
        <mxCell id="9XJ_nklo4HL-OzojhpFP-33" value="&lt;font color=&quot;#ff0000&quot;&gt;&lt;span style=&quot;font-size: 24px&quot;&gt;&lt;b&gt;8&lt;/b&gt;&lt;/span&gt;&lt;/font&gt;" style="text;html=1;strokeColor=none;fillColor=none;align=center;verticalAlign=middle;whiteSpace=wrap;rounded=0;" vertex="1" parent="1">
          <mxGeometry x="120" y="370" width="40" height="20" as="geometry" />
        </mxCell>
        <mxCell id="9XJ_nklo4HL-OzojhpFP-34" value="&lt;font color=&quot;#ff0000&quot;&gt;&lt;span style=&quot;font-size: 24px&quot;&gt;&lt;b&gt;4&lt;/b&gt;&lt;/span&gt;&lt;/font&gt;" style="text;html=1;strokeColor=none;fillColor=none;align=center;verticalAlign=middle;whiteSpace=wrap;rounded=0;" vertex="1" parent="1">
          <mxGeometry x="270" y="400" width="40" height="20" as="geometry" />
        </mxCell>
        <mxCell id="9XJ_nklo4HL-OzojhpFP-35" value="&lt;font color=&quot;#ff0000&quot;&gt;&lt;span style=&quot;font-size: 24px&quot;&gt;&lt;b&gt;3&lt;/b&gt;&lt;/span&gt;&lt;/font&gt;" style="text;html=1;strokeColor=none;fillColor=none;align=center;verticalAlign=middle;whiteSpace=wrap;rounded=0;" vertex="1" parent="1">
          <mxGeometry x="339" y="510" width="40" height="20" as="geometry" />
        </mxCell>
        <mxCell id="9XJ_nklo4HL-OzojhpFP-36" value="&lt;font color=&quot;#ff0000&quot;&gt;&lt;span style=&quot;font-size: 24px&quot;&gt;&lt;b&gt;5&lt;/b&gt;&lt;/span&gt;&lt;/font&gt;" style="text;html=1;strokeColor=none;fillColor=none;align=center;verticalAlign=middle;whiteSpace=wrap;rounded=0;" vertex="1" parent="1">
          <mxGeometry x="474" y="430" width="40" height="20" as="geometry" />
        </mxCell>
      </root>
    </mxGraphModel>
  </diagram>
</mxfile>
